# xmcd CD database file
#
# Track frame offsets:
#	150
#	21355
#	42389
#	59460
#	76788
#	90758
#	107098
#	125615
#	145785
#	161992
#	185240
#
# Disc length: 2688 seconds
#
# Revision: 0
# Processed by: cddbd v1.5.2PL0 Copyright (c) Steve Scherf et al.
# Submitted via: CDex 1.70beta2
#
DISCID=930a7e0b
DTITLE=Reba Mcentire - Duets
DYEAR=2007
DGENRE=Country
TTITLE0=When You Love Someone Like That (With Leann Rimes)
TTITLE1=Does The Wind Still Blow In Oklahoma (With Ronnie Dunn)
TTITLE2=Because Of You (With Kelly Clarkson)
TTITLE3=Faith In Love (With Rascal Flats)
TTITLE4=She Can't Save Him (With Trisha Yearwood)
TTITLE5=Everyday People (With Carole King)
TTITLE6=Every Other Weekend (With Kenny Chesney)
TTITLE7=These Broken Hearts (With Vince Hill)
TTITLE8=Sleeping With The Telephone (With Faith Hill)
TTITLE9=The Only Promise That Remains (With Justin Timberlake)
TTITLE10=Break Each Other's Hearts Again (With Don Henley)
EXTD=YEAR: 2007
EXTT0=
EXTT1=
EXTT2=
EXTT3=
EXTT4=
EXTT5=
EXTT6=
EXTT7=
EXTT8=
EXTT9=
EXTT10=
PLAYORDER=
